<?xml version="1.0" encoding="UTF-8"?>
<svg width="14px" height="15px" viewBox="0 0 14 15" version="1.1" xmlns="http://www.w3.org/2000/svg" xmlns:xlink="http://www.w3.org/1999/xlink">
    <title>下载</title>
    <defs>
        <rect id="path-1" x="0" y="0" width="14" height="14"></rect>
    </defs>
    <g id="03067-新" stroke="none" stroke-width="1" fill="none" fill-rule="evenodd">
        <g id="文章详情页-2-同步专题合到同步" transform="translate(-702.000000, -646.000000)">
            <g id="编组-15" transform="translate(240.000000, 165.000000)">
                <g id="组_6931" transform="translate(19.000000, 370.000000)">
                    <g id="组_7670" transform="translate(1.000000, 69.000000)">
                        <g id="预览-2" transform="translate(218.000000, 40.971001)">
                            <g id="编组-21" transform="translate(50.000000, 0.000000)">
                                <g id="下载" transform="translate(174.000000, 2.000000)">
                                    <mask id="mask-2" fill="white">
                                        <use xlink:href="#path-1"></use>
                                    </mask>
                                    <g id="矩形"></g>
                                    <g id="编组" mask="url(#mask-2)" fill="#777777" fill-rule="nonzero">
                                        <g transform="translate(0.000000, 0.875000)" id="形状结合">
                                            <path d="M13.5212875,8.466325 C13.552875,8.466325 13.58385,8.4697375 13.614825,8.4756875 C13.645625,8.481725 13.67555,8.4910875 13.7046,8.503075 C13.73365,8.514975 13.7612125,8.5295 13.7872,8.54665 C13.8135375,8.5645875 13.8376875,8.5841875 13.859825,8.6064125 C13.88205,8.6286375 13.9019125,8.6526125 13.9192375,8.6790375 C13.9367375,8.70555 13.951525,8.7329375 13.9635125,8.7619875 C13.975675,8.7910375 13.9846,8.8209625 13.9908125,8.851675 C13.997025,8.882475 14,8.9131875 14,8.9448625 L14,10.8170125 C14,10.8845625 13.9965875,10.9529 13.9897625,11.0203625 C13.9831125,11.0879125 13.97305,11.155375 13.9596625,11.22205 C13.9463625,11.288725 13.9297375,11.354525 13.91005,11.41945 C13.8901875,11.484375 13.86735,11.548425 13.841275,11.6108125 C13.8152,11.674075 13.78615,11.7355875 13.754125,11.7954375 C13.7218375,11.8552 13.6870125,11.9133 13.6492125,11.9697375 C13.6114125,12.0269625 13.571075,12.080775 13.52785,12.1338 C13.4847125,12.18595 13.4390375,12.23635 13.391,12.285 C13.342875,12.3328625 13.292475,12.3781875 13.2398875,12.4217625 C13.1873875,12.4644625 13.132875,12.5055 13.0762625,12.543125 C13.0199125,12.5806625 12.96155,12.61575 12.901525,12.6473375 C12.8417625,12.6798 12.78025,12.70885 12.717425,12.7344875 C12.6546,12.761 12.590725,12.7841 12.5255375,12.8037 C12.4606125,12.8233875 12.3948125,12.84045 12.3279625,12.8533125 C12.2612875,12.8669625 12.1942625,12.876325 12.1265375,12.88315 C12.0588125,12.889975 11.9910875,12.893475 11.922925,12.893475 L2.0770575,12.893475 C2.0089125,12.893475 1.94119625,12.889975 1.87347125,12.88315 C1.805755,12.876325 1.7386775,12.8669625 1.67202875,12.8533125 C1.60516125,12.84045 1.53937,12.8233875 1.4744275,12.8037 C1.409275,12.7841 1.3454,12.761 1.2825925,12.7344875 C1.219785,12.70885 1.15826375,12.6798 1.09844875,12.6473375 C1.03842375,12.61575 0.980105,12.5806625 0.9237025,12.543125 C0.867096125,12.5055 0.812622125,12.4644625 0.7600705,12.4217625 C0.70751975,12.3781875 0.657104875,12.3328625 0.609039375,12.285 C0.560973875,12.23635 0.515258625,12.18595 0.472107125,12.1338 C0.42895475,12.080775 0.3885805,12.0269625 0.350769125,11.9697375 C0.31295775,11.9133 0.278137125,11.8552 0.24588025,11.7954375 C0.213836875,11.7355875 0.18478425,11.674075 0.1587215,11.6108125 C0.132659625,11.548425 0.109802,11.484375 0.089935125,11.41945 C0.0702820125,11.354525 0.0536193875,11.288725 0.040374775,11.22205 C0.0269164875,11.155375 0.0168762125,11.0879125 0.01025395,11.0203625 C0.00341796875,10.9529 0,10.8845625 0,10.8170125 L0,8.9448625 C0,8.9131875 0.00299072375,8.882475 0.00918575,8.851675 C0.0153808375,8.8209625 0.024353,8.7910375 0.0365295,8.7619875 C0.0484924125,8.7329375 0.0632324,8.70555 0.08074955,8.6790375 C0.098053375,8.6526125 0.11792025,8.6286375 0.1401365,8.6064125 C0.162353625,8.5841875 0.186493125,8.5645875 0.2127685,8.54665 C0.238830375,8.5295 0.266387625,8.514975 0.29544025,8.503075 C0.32449375,8.4910875 0.354400375,8.481725 0.38516275,8.4756875 C0.41613775,8.4697375 0.44711275,8.466325 0.478729125,8.466325 C0.510132,8.466325 0.541107,8.4697375 0.572082875,8.4756875 C0.602844375,8.481725 0.632751875,8.4910875 0.6618045,8.503075 C0.690857125,8.514975 0.718414375,8.5295 0.74447625,8.54665 C0.770751625,8.5645875 0.794891125,8.5841875 0.81710825,8.6064125 C0.839325375,8.6286375 0.85919225,8.6526125 0.87649625,8.6790375 C0.89401375,8.70555 0.90874875,8.7329375 0.92092875,8.7619875 C0.93289,8.7910375 0.9418675,8.8209625 0.9480625,8.851675 C0.9542575,8.882475 0.95724125,8.9131875 0.95724125,8.9448625 L0.95724125,10.8170125 C0.95724125,10.8537625 0.95916625,10.8896375 0.9627975,10.9263875 C0.96642875,10.9631375 0.971775,10.9990125 0.9790375,11.0348875 C0.98608125,11.0707625 0.99505875,11.106725 1.00573375,11.141725 C1.0164175,11.176725 1.0288075,11.2109375 1.04290375,11.24515 C1.05679,11.2784 1.07260125,11.3117375 1.08990875,11.3442 C1.1072075,11.37675 1.12601125,11.4083375 1.1463025,11.4382625 C1.1668125,11.468975 1.1886,11.498025 1.21188375,11.527075 C1.2349575,11.5553375 1.2597375,11.5817625 1.285585,11.608275 C1.3114325,11.6339125 1.33856625,11.658675 1.3669775,11.681775 C1.39538875,11.704875 1.42464875,11.7270125 1.45520375,11.747575 C1.48575,11.76805 1.51715375,11.7868625 1.54940625,11.803925 C1.5816675,11.821075 1.6147775,11.8363875 1.648745,11.8509125 C1.68249375,11.86465 1.71689,11.877425 1.752135,11.8876625 C1.78717,11.898775 1.82263375,11.90735 1.8585175,11.91505 C1.89462,11.921875 1.9307225,11.9270375 1.96725375,11.9312375 C2.003785,11.93465 2.04031625,11.9364 2.0770575,11.9364 L11.922925,11.9364 C11.959675,11.9364 11.99625,11.93465 12.0327375,11.9312375 C12.0693125,11.9270375 12.1053625,11.921875 12.1415,11.91505 C12.177375,11.90735 12.2128125,11.898775 12.2479,11.8876625 C12.283075,11.877425 12.3174625,11.86465 12.3512375,11.8509125 C12.3851875,11.8363875 12.41835,11.821075 12.45055,11.803925 C12.4828375,11.7868625 12.51425,11.76805 12.5447875,11.747575 C12.575325,11.7270125 12.6046375,11.704875 12.6329875,11.681775 C12.661425,11.658675 12.68855,11.6339125 12.71445,11.608275 C12.7402625,11.5817625 12.765025,11.5553375 12.788125,11.527075 C12.8114,11.498025 12.8331875,11.468975 12.8536625,11.4382625 C12.8739625,11.4083375 12.892775,11.37675 12.9101,11.3442 C12.927425,11.3117375 12.943175,11.2784 12.9570875,11.24515 C12.971175,11.2109375 12.9836,11.176725 12.994275,11.141725 C13.00495,11.106725 13.013875,11.0707625 13.0209625,11.0348875 C13.028225,10.9990125 13.0335625,10.9631375 13.0372375,10.9263875 C13.040825,10.8896375 13.04275,10.8537625 13.04275,10.8170125 L13.04275,8.9448625 C13.04275,8.9131875 13.045725,8.882475 13.0519375,8.851675 C13.05815,8.8209625 13.067075,8.7910375 13.0790625,8.7619875 C13.091225,8.7329375 13.1060125,8.70555 13.12325,8.6790375 C13.1408375,8.6526125 13.1607,8.6286375 13.182925,8.6064125 C13.20515,8.5841875 13.2292125,8.5645875 13.25555,8.54665 C13.281625,8.5295 13.3091,8.514975 13.3382375,8.503075 C13.3672875,8.4910875 13.397125,8.481725 13.427925,8.4756875 C13.4589,8.4697375 13.489875,8.466325 13.5212875,8.466325 Z M7.00021,-1.11910481e-13 C7.03161375,-1.11910481e-13 7.06258875,0.00342125 7.09356375,0.0093975 C7.12432875,0.0153825 7.15423625,0.02478 7.18328625,0.03674125 C7.212345,0.0487025 7.23989875,0.06323625 7.265965,0.080325 C7.2922325,0.0982625 7.31637375,0.11792375 7.33859,0.14014 C7.36080625,0.16235625 7.3806775,0.18627875 7.39797625,0.212765 C7.41549375,0.23926 7.4302375,0.26660375 7.4424175,0.29565375 C7.45437875,0.32470375 7.4633475,0.35461125 7.4695425,0.38537625 C7.4757375,0.41614125 7.47873,0.4468975 7.47873,0.47852 L7.478,8.225 L10.933475,5.36792375 C10.9578,5.3482625 10.9836125,5.33203125 11.011175,5.31750625 C11.0387375,5.30212375 11.0676125,5.29102 11.0975375,5.28161375 C11.127375,5.27307375 11.158,5.26708875 11.188975,5.264525 C11.21995,5.2611125 11.2511,5.2611125 11.282075,5.264525 C11.31305,5.26708875 11.3435875,5.2739225 11.3735125,5.28247125 C11.403175,5.29186875 11.43205,5.30383 11.4596125,5.318355 C11.4869125,5.33288875 11.5128125,5.3499775 11.5369625,5.36963 C11.5612875,5.3892825 11.58325,5.41149875 11.6031125,5.43542125 C11.622975,5.4593525 11.6403,5.48498125 11.6552625,5.5131825 C11.67005,5.54052625 11.68195,5.5687275 11.6914,5.598635 C11.7005875,5.6285425 11.7068,5.65929875 11.7102125,5.69006375 C11.7133625,5.72082875 11.7138,5.751585 11.711,5.7832075 C11.7082875,5.81396375 11.7025125,5.84472875 11.6937625,5.87463625 C11.684925,5.90454375 11.6734625,5.93359375 11.6591125,5.9609375 C11.6445875,5.98913875 11.6277,6.0147675 11.608275,6.0395475 C11.58885,6.06347875 11.5672375,6.085695 11.54335,6.106205 L7.306,9.61 C7.29170094,9.6235125 7.27909875,9.6327 7.265965,9.641275 L7.245,9.653 L7.23599229,9.66028574 C7.23371144,9.66159897 7.23142293,9.66289089 7.22912676,9.66416153 L7.265965,9.641275 C7.25075969,9.65173854 7.23504821,9.66104089 7.2188271,9.66933835 L7.2753625,9.6343625 C7.25232813,9.65057187 7.2280993,9.6647953 7.20275691,9.67671913 C7.19635488,9.68011987 7.18985906,9.68294583 7.18328625,9.6856375 C7.16735525,9.69263819 7.15896508,9.69565522 7.15048489,9.69842283 L7.18328625,9.6856375 C7.15423625,9.697625 7.12432875,9.707075 7.09356375,9.713025 L7.077,9.715 C7.07111019,9.71652905 7.06913073,9.71681547 7.06714927,9.71708907 L7.09356375,9.713025 C7.06258875,9.718975 7.03161375,9.7223875 7.00021,9.7223875 C6.97801311,9.7223875 6.95613112,9.72070519 6.93434292,9.71764345 L6.99957125,9.7216 C6.97362165,9.7216 6.94790881,9.71967167 6.92249721,9.71559585 C6.91719093,9.71497701 6.91191859,9.71403777 6.90664625,9.713025 C6.88818725,9.709455 6.87003695,9.704625 6.85219535,9.6987429 C6.84742959,9.69780895 6.84257808,9.69616692 6.83775641,9.69444219 L6.81692375,9.6856375 L6.81692375,9.6856375 L6.797,9.676 L6.78720438,9.672425 C6.78478038,9.67123646 6.7823666,9.67002685 6.77996298,9.66879621 L6.81692375,9.6856375 C6.80130938,9.67924125 6.78612475,9.67208662 6.77137259,9.66405132 C6.76516018,9.66097047 6.75945491,9.65764516 6.75379808,9.65418525 C6.74737656,9.65003047 6.74076813,9.64575937 6.73425375,9.641275 C6.72999379,9.63922812 6.72709313,9.63725 6.72420875,9.6352375 L6.708,9.622 L6.69641438,9.61369062 C6.6953775,9.61284875 6.69434435,9.61200221 6.69331492,9.611151 L2.45602,6.106205 C2.43231625,6.085695 2.41052,6.06347875 2.39108625,6.0395475 C2.37164375,6.0147675 2.354765,5.98913875 2.34045,5.9609375 C2.32614375,5.93359375 2.3143925,5.90454375 2.30584375,5.87463625 C2.297085,5.84472875 2.29131875,5.81396375 2.288545,5.7832075 C2.2857625,5.751585 2.28598125,5.72082875 2.2894025,5.69006375 C2.292605,5.65929875 2.2988,5.6285425 2.3081975,5.598635 C2.317385,5.5687275 2.32934625,5.54052625 2.3443,5.5131825 C2.359035,5.48498125 2.3765525,5.4593525 2.39642375,5.43542125 C2.41628625,5.41149875 2.4382925,5.3892825 2.46243375,5.36963 C2.486575,5.3499775 2.5124225,5.33288875 2.53997625,5.318355 C2.56753875,5.30383 2.59616,5.29186875 2.6260675,5.28247125 C2.655975,5.2739225 2.68631125,5.26708875 2.71728625,5.264525 C2.74847125,5.2611125 2.77944625,5.2611125 2.81042125,5.264525 C2.841615,5.26708875 2.87216125,5.27307375 2.90206875,5.28161375 C2.93176625,5.29102 2.9605975,5.30212375 2.98816,5.31664875 C3.0159325,5.33203125 3.04178,5.3482625 3.06613125,5.36792375 L6.521,8.225 L6.52148,0.47852 C6.52148,0.4468975 6.5244725,0.41614125 6.5306675,0.38537625 C6.5368625,0.35461125 6.54584,0.32470375 6.55801125,0.29565375 C6.5699725,0.26660375 6.58471625,0.23926 6.60223375,0.212765 C6.61954125,0.18627875 6.63940375,0.16235625 6.66162,0.14014 C6.68383625,0.11792375 6.7079775,0.0982625 6.73425375,0.080325 C6.76031125,0.06323625 6.78787375,0.0487025 6.81692375,0.03674125 C6.84597375,0.02478 6.87588125,0.0153825 6.90664625,0.0093975 C6.93762125,0.00342125 6.96859625,-1.11910481e-13 7.00021,-1.11910481e-13 Z"></path>
                                        </g>
                                    </g>
                                </g>
                            </g>
                        </g>
                    </g>
                </g>
            </g>
        </g>
    </g>
</svg>